# xmcd
#
# Track frame offsets: 
#        150
#        14813
#        34243
#        47475
#        61932
#        76663
#        96072
#        116511
#        125745
#        140329
#        154263
#        169257
#        184591
#        196702
#        210197
#        221194
#        235385
#        245726
#        252051
#        273441
#        297202
#        318138
#        335930
#
# Disc length: 4673 seconds
#
# Revision: 0
# Processed by: cddbd v1.5.1PL0 Copyright (c) Steve Scherf et al.
# Submitted via: ExactAudioCopy v0.90b4
#
DISCID=50123f17
DTITLE=Jo Anne Kelly - Black Rat Swing: The Collectors' Jo Anne Kelly 
DTITLE=[CD1]
DYEAR=2003
DGENRE=Blues
TTITLE0=Where is My Good Man At?
TTITLE1=This is Your Last Chance Now
TTITLE2=Ain't Seen No Whiskey
TTITLE3=Back Water Blues
TTITLE4=Keep Your Hands Out of My Pocket [live]
TTITLE5=No Chance with You
TTITLE6=I Can't Quit You Baby
TTITLE7=Levee Camp Holler
TTITLE8=Tell Me Papa (How You Want it Done)
TTITLE9=Talkin' Low
TTITLE10=Louisiana Blues
TTITLE11=Boyfriend Blues
TTITLE12=Catfish Blues
TTITLE13=Walking the Dog
TTITLE14=You Win Again
TTITLE15=I've Been Scorned
TTITLE16=Can I Get a Witness
TTITLE17=Rolling Log Blues
TTITLE18=It's too Late for that Now
TTITLE19=Jump Steady Daddy
TTITLE20=Til My Back ain't Got No Bone
TTITLE21=Niki Hoeky
TTITLE22=Put a Record On
EXTD=
EXTT0=
EXTT1=
EXTT2=
EXTT3=
EXTT4=
EXTT5=
EXTT6=
EXTT7=
EXTT8=
EXTT9=
EXTT10=
EXTT11=
EXTT12=
EXTT13=
EXTT14=
EXTT15=
EXTT16=
EXTT17=
EXTT18=
EXTT19=
EXTT20=
EXTT21=
EXTT22=
PLAYORDER=
